<svg width="2648" height="704" xmlns="http://www.w3.org/2000/svg" xmlns:xlink="http://www.w3.org/1999/xlink" xml:space="preserve" overflow="hidden"><defs><clipPath id="clip0"><rect x="358" y="715" width="2648" height="704"/></clipPath></defs><g clip-path="url(#clip0)" transform="translate(-358 -715)"><g><g><g><path d="M45.7145 49.2615 118.296 49.2615 118.296 567.635 45.7144 567.635Z" stroke="#FA6B04" stroke-width="30.9" stroke-linejoin="round" fill="#FA6B04" transform="matrix(1 0 0 1.00162 358 715)"/><path d="M365.401 22.7915 438.022 22.7915 438.022 389.987 365.908 338.261 365.401 22.7915Z" stroke="#FA6B04" stroke-width="30.9166" stroke-linejoin="round" fill="#FA6B04" transform="matrix(-0.576921 -0.817462 0.816141 -0.577855 822.809 1369.26)"/><path d="M362.139 225.637 434.762 225.637 433.371 541.131 362.139 592.842 362.139 225.637Z" stroke="#FA6B04" stroke-width="30.9174" stroke-linejoin="round" fill="#FA6B04" transform="matrix(0.590783 -0.807435 0.806131 0.591739 190.927 1204.23)"/><path d="M167.921 49.2615 475.329 49.2615 319.83 163.448 167.921 266.465 167.921 49.2615Z" stroke="#455A64" stroke-width="30.9" stroke-linejoin="round" fill="#455A64" transform="matrix(1 0 0 1.00162 358 715)"/><path d="M475.329 350.431 171.276 350.431 325.077 464.618 475.329 567.635 475.329 350.431Z" stroke="#455A64" stroke-width="30.9" stroke-linejoin="round" fill="#455A64" transform="matrix(-0.999973 -0.00729227 0.00728048 -1.00159 1001.25 1636.9)"/><path d="" stroke="#FA6B04" stroke-width="30.9" stroke-linejoin="round" fill="none" transform="matrix(1 0 0 1.00162 358 715)"/><path d="" stroke="#FA6B04" stroke-width="30.9" stroke-linejoin="round" fill="none" transform="matrix(1 0 0 1.00162 358 715)"/><path d="" stroke="#FA6B04" stroke-width="30.9" stroke-linejoin="round" fill="none" transform="matrix(1 0 0 1.00162 358 715)"/><path d="" stroke="#FA6B04" stroke-width="30.9" stroke-linejoin="round" fill="none" transform="matrix(1 0 0 1.00162 358 715)"/><path d="" stroke="#FA6B04" stroke-width="30.9" stroke-linejoin="round" fill="none" transform="matrix(1 0 0 1.00162 358 715)"/><path d="" stroke="#FA6B04" stroke-width="30.9" stroke-linejoin="round" fill="none" transform="matrix(1 0 0 1.00162 358 715)"/><path d="M213.905 306.65C213.905 292.559 226.965 281.145 243.088 281.145 259.212 281.145 272.271 292.559 272.271 306.65 272.271 320.741 259.212 332.154 243.088 332.154 226.965 332.154 213.905 320.741 213.905 306.65Z" stroke="#FA6B04" stroke-width="30.9" stroke-linejoin="round" fill="#FA6B04" transform="matrix(1 0 0 1.00162 358 715)"/><path d="M311.183 304.839C311.183 270.598 343.148 242.864 382.612 242.864 422.076 242.864 339.995 272.599 339.995 306.84 339.995 341.081 422.076 366.815 382.612 366.815 343.148 366.815 311.183 339.08 311.183 304.839Z" stroke="#FA6B04" stroke-width="30.9" stroke-linejoin="round" fill="#FA6B04" transform="matrix(1 0 0 1.00162 358 715)"/><path d="M455.219 308.448C455.219 286.634 473.657 268.965 496.419 268.965 519.182 268.965 537.619 286.634 537.619 308.448 537.619 330.262 519.182 347.931 496.419 347.931 473.657 347.931 455.219 330.262 455.219 308.448Z" stroke="#455A64" stroke-width="30.9" stroke-linejoin="round" fill="#455A64" transform="matrix(1 0 0 1.00162 358 715)"/></g></g></g><text fill="#FFFFFF" font-family="#9Slide03 IcielPanton Black,#9Slide03 IcielPanton Black_MSFontService,sans-serif" font-weight="900" font-size="330" transform="matrix(1 0 0 1 979.145 1139)">KIM QUANG</text></g></svg>